<?xml version="1.0" encoding="utf-8"?>
<!-- Generator: Adobe Illustrator 15.0.2, SVG Export Plug-In . SVG Version: 6.00 Build 0)  -->
<!DOCTYPE svg PUBLIC "-//W3C//DTD SVG 1.1//EN" "http://www.w3.org/Graphics/SVG/1.1/DTD/svg11.dtd">
<svg version="1.1" id="Ebene_1" xmlns="http://www.w3.org/2000/svg" xmlns:xlink="http://www.w3.org/1999/xlink" x="0px" y="0px"
	 width="26px" height="26px" viewBox="0 0 26 26" enable-background="new 0 0 26 26" xml:space="preserve">
<g id="Ebene_1_1_" display="none">
	<g display="inline">
		<g id="XMLID_2_">
			<path fill="#E6E6E6" d="M19.798,22.646v-4.938l-4.937,4.938H19.798z M19.798,14.887V3.354H5.77v19.292h6.268l0.021-0.021
				l0.001-7.662l7.665-0.004L19.798,14.887z M21.875,1.358v23.285H3.692V1.358H21.875z"/>
		</g>
	</g>
</g>
<g id="Ebene_5" display="none">
	<path display="inline" fill="#E6E6E6" d="M24.426,11.869c0-0.289-0.238-0.525-0.525-0.525h-0.963c-0.293,0-0.599-0.225-0.679-0.504
		l-1.312-3.062c-0.141-0.25-0.094-0.623,0.111-0.828l0.651-0.652c0.204-0.205,0.204-0.54,0-0.744l-1.569-1.571
		c-0.205-0.205-0.539-0.205-0.746,0l-0.707,0.71c-0.207,0.205-0.586,0.261-0.838,0.126l-2.666-1.064
		c-0.279-0.079-0.507-0.382-0.507-0.669V2.097c0-0.288-0.237-0.524-0.524-0.524h-2.223c-0.289,0-0.526,0.236-0.526,0.524v0.989
		c0,0.288-0.227,0.593-0.501,0.678L7.81,5.087C7.563,5.232,7.193,5.184,6.987,4.98L6.294,4.287c-0.204-0.204-0.539-0.204-0.743,0
		L3.98,5.858c-0.207,0.205-0.207,0.54,0,0.745l0.753,0.756c0.208,0.205,0.264,0.579,0.131,0.837l-1.05,2.641
		c-0.077,0.281-0.379,0.506-0.669,0.506H2.096c-0.289,0-0.523,0.236-0.523,0.525v2.221c0,0.291,0.234,0.529,0.523,0.529h1.048
		c0.291,0,0.594,0.223,0.678,0.501l1.29,3.039c0.148,0.249,0.097,0.621-0.104,0.826l-0.724,0.72c-0.203,0.203-0.203,0.536,0,0.741
		l1.573,1.572c0.206,0.205,0.541,0.205,0.741,0l0.771-0.768c0.206-0.205,0.576-0.264,0.835-0.124l2.694,1.074
		c0.274,0.079,0.501,0.384,0.501,0.671V23.9c0,0.289,0.237,0.524,0.526,0.524h2.224c0.287,0,0.524-0.235,0.524-0.524v-1.029
		c0-0.287,0.226-0.592,0.507-0.676l3.012-1.278c0.252-0.142,0.619-0.091,0.826,0.108l0.682,0.686c0.203,0.202,0.537,0.202,0.742,0
		l1.574-1.572c0.205-0.203,0.205-0.539,0-0.742l-0.729-0.724c-0.2-0.205-0.258-0.58-0.12-0.836l1.092-2.717
		c0.076-0.28,0.382-0.503,0.675-0.509H23.9c0.287,0,0.524-0.234,0.524-0.523L24.426,11.869L24.426,11.869z M13,16.736
		c-2.066,0-3.736-1.672-3.736-3.737c0-2.064,1.67-3.736,3.736-3.736c2.062,0,3.736,1.672,3.736,3.736
		C16.736,15.064,15.062,16.736,13,16.736z"/>
</g>
<g id="Ebene_3" display="none">
	<g display="inline">
		<path fill="#4D4D4D" d="M17.867,14.855c-0.178,0.061-0.428,0.004-0.557-0.125l-6.043-6.042c-0.129-0.13-0.184-0.379-0.125-0.554
			l0.676-1.927c0.059-0.175,0.028-0.447-0.07-0.603L9.584,2.165C9.489,2.007,9.256,1.864,9.071,1.842L6.129,1.511
			C5.946,1.488,5.794,1.624,5.794,1.808v1.919c0,0.183,0.152,0.349,0.335,0.372l1.558,0.177C7.872,4.297,8.103,4.442,8.2,4.597
			L9.109,6.04c0.099,0.156,0.129,0.429,0.064,0.601L8.87,7.513C8.808,7.689,8.651,7.938,8.521,8.068L8,8.589
			c-0.13,0.13-0.378,0.288-0.552,0.35L6.573,9.243c-0.174,0.06-0.444,0.031-0.601-0.068L4.528,8.27
			c-0.156-0.101-0.3-0.332-0.322-0.514L4.019,6.062C3.995,5.877,3.98,5.725,3.98,5.723c0.004-0.002,0.004-0.008,0-0.012
			S3.82,5.705,3.636,5.705H1.797c-0.183,0-0.317,0.151-0.297,0.332l0.342,3.036c0.02,0.185,0.165,0.416,0.322,0.513l3.442,2.164
			c0.157,0.099,0.428,0.128,0.601,0.069l1.927-0.674c0.173-0.063,0.424-0.005,0.555,0.126l6.042,6.038
			c0.129,0.133,0.186,0.385,0.127,0.559l-0.676,1.924c-0.061,0.175-0.031,0.445,0.068,0.604l2.163,3.44
			c0.097,0.157,0.33,0.304,0.511,0.323l2.947,0.333c0.184,0.021,0.334-0.112,0.334-0.3v-1.916c0-0.187-0.15-0.354-0.334-0.375
			l-1.561-0.176c-0.187-0.019-0.414-0.164-0.513-0.322l-0.909-1.441c-0.096-0.159-0.123-0.428-0.066-0.604l0.562-1.608
			c0.062-0.174,0.256-0.368,0.428-0.429l1.611-0.562c0.174-0.062,0.444-0.031,0.602,0.068l1.442,0.906
			c0.155,0.099,0.304,0.328,0.324,0.512l0.188,1.695c0.021,0.183,0.039,0.334,0.037,0.338c-0.004,0.002-0.002,0.009,0.002,0.013
			c0.002,0.003,0.156,0.007,0.342,0.007h1.84c0.184,0,0.316-0.15,0.299-0.334l-0.346-3.036c-0.021-0.184-0.162-0.415-0.319-0.514
			l-3.442-2.162c-0.158-0.097-0.428-0.129-0.604-0.067L17.867,14.855z"/>
	</g>
</g>
<g id="Ebene_4" display="none">
	<g display="inline">
		<path fill="#4D4D4D" d="M7.46,15.578l7.957-7.954L15.35,7.683c0.104-0.081,2.592-1.992,4.521-0.059
			c1.854,1.854,0.178,3.784-0.021,3.998l0.021-0.021l-9.625,9.624l0.051-0.043c-0.146,0.119-3.594,2.943-6.493,0.043
			C1,18.424,3.509,15.716,3.804,15.419C3.803,15.421,14.302,4.918,14.302,4.918l-0.042,0.04c0.17-0.144,4.197-3.519,7.68-0.04
			c3.473,3.473,0.115,7.349-0.032,7.513l0.032-0.035l-8.353,8.352l1.114,1.113l8.354-8.352l0.012-0.015l0.018-0.017
			c1.574-1.761,3.596-6.046-0.029-9.673c-3.619-3.618-8.009-1.607-9.825-0.039l-0.021,0.019l-0.019,0.02L2.688,14.307
			c-1.388,1.391-3.177,4.857,0,8.033c3.142,3.145,7.014,1.405,8.623,0.046l0.025-0.021l0.023-0.024l9.625-9.625
			c1.051-1.118,2.377-3.828,0-6.205c-2.344-2.344-5.354-1.064-6.615-0.059L14.333,6.48l-0.031,0.03l-7.955,7.957L7.46,15.578z"/>
	</g>
</g>
<g id="Ebene_2" display="none">
	<g display="inline">
		<path fill="#4D4D4D" d="M13,1.404C6.596,1.404,1.404,6.597,1.404,13c0,6.404,5.191,11.596,11.596,11.596
			c6.404,0,11.596-5.191,11.596-11.596C24.596,6.597,19.404,1.404,13,1.404z M13,22.422c-5.204,0-9.422-4.22-9.422-9.422
			c0-5.201,4.218-9.42,9.422-9.42s9.423,4.219,9.423,9.42C22.424,18.202,18.204,22.422,13,22.422z"/>
		<polygon fill="#4D4D4D" points="13.907,12.096 13.907,4.243 12.094,4.243 12.094,13.907 13.242,13.907 13.907,13.907 
			21.214,13.907 21.214,12.096 		"/>
	</g>
</g>
<g id="Ebene_6" display="none">
	<polygon display="inline" fill="#4D4D4D" points="4.096,6.323 1.87,8.549 13,19.68 24.13,8.549 21.904,6.323 13,15.227 	"/>
</g>
<g>
	
		<rect x="9.844" y="1.686" transform="matrix(0.7071 0.7071 -0.7071 0.7071 12.9042 -5.1526)" fill="#FFFFFF" width="5.655" height="22.628"/>
	
		<rect x="9.844" y="1.686" transform="matrix(0.707 -0.7072 0.7072 0.707 -5.4811 12.7699)" fill="#FFFFFF" width="5.655" height="22.629"/>
</g>
</svg>
